<svg width="1280" height="332" viewBox="0 0 1280 332" fill="none" xmlns="http://www.w3.org/2000/svg">
<g clip-path="url(#clip0_1_56)">
<path d="M0 66.4L35.5556 77.4937C71.1111 88.2634 142.222 110.937 213.333 149.4C284.444 187.863 355.556 243.737 426.667 254.506C497.778 265.6 568.889 232.4 640 226.894C711.111 221.063 782.222 243.737 853.333 237.906C924.444 232.4 995.556 199.2 1066.67 188.106C1137.78 177.337 1208.89 187.863 1280 177.094C1351.11 166 1422.22 132.8 1493.33 127.294C1564.44 121.463 1635.56 144.137 1706.67 127.294C1777.78 110.937 1848.89 55.0634 1920 27.6937C1991.11 1.90735e-06 2062.22 1.90735e-06 2133.33 27.6937C2204.44 55.0634 2275.56 110.937 2346.67 154.906C2417.78 199.2 2488.89 232.4 2560 215.8C2631.11 199.2 2702.22 132.8 2773.33 94.0937C2844.44 55.0634 2915.56 44.5366 2986.67 38.7063C3057.78 33.2 3128.89 33.2 3200 71.9063C3271.11 110.937 3342.22 187.863 3413.33 204.706C3484.44 221.063 3555.56 177.337 3626.67 132.8C3697.78 88.2634 3768.89 44.5366 3840 71.9063C3911.11 99.6 3982.22 199.2 4053.33 199.2C4124.44 199.2 4195.56 99.6 4266.67 77.4937C4337.78 55.0634 4408.89 110.937 4480 160.494C4551.11 210.537 4622.22 254.263 4693.33 226.894C4764.44 199.2 4835.56 99.6 4906.67 66.4C4977.78 33.2 5048.89 66.4 5084.44 83L5120 99.6V332H5084.44C5048.89 332 4977.78 332 4906.67 332C4835.56 332 4764.44 332 4693.33 332C4622.22 332 4551.11 332 4480 332C4408.89 332 4337.78 332 4266.67 332C4195.56 332 4124.44 332 4053.33 332C3982.22 332 3911.11 332 3840 332C3768.89 332 3697.78 332 3626.67 332C3555.56 332 3484.44 332 3413.33 332C3342.22 332 3271.11 332 3200 332C3128.89 332 3057.78 332 2986.67 332C2915.56 332 2844.44 332 2773.33 332C2702.22 332 2631.11 332 2560 332C2488.89 332 2417.78 332 2346.67 332C2275.56 332 2204.44 332 2133.33 332C2062.22 332 1991.11 332 1920 332C1848.89 332 1777.78 332 1706.67 332C1635.56 332 1564.44 332 1493.33 332C1422.22 332 1351.11 332 1280 332C1208.89 332 1137.78 332 1066.67 332C995.556 332 924.444 332 853.333 332C782.222 332 711.111 332 640 332C568.889 332 497.778 332 426.667 332C355.556 332 284.444 332 213.333 332C142.222 332 71.1111 332 35.5556 332H0V66.4Z" fill="url(#paint0_linear_1_56)"/>
<path opacity="0.9" d="M0 132.8H35.5556C71.1111 132.8 142.222 132.8 213.333 121.706C284.444 110.937 355.556 88.2634 426.667 105.106C497.778 121.463 568.889 177.337 640 193.694C711.111 210.537 782.222 187.863 853.333 193.694C924.444 199.2 995.556 232.4 1066.67 221.306C1137.78 210.537 1208.89 154.663 1280 154.906C1351.11 154.663 1422.22 210.537 1493.33 199.2C1564.44 187.863 1635.56 110.937 1706.67 110.694C1777.78 110.937 1848.89 187.863 1920 232.4C1991.11 276.937 2062.22 287.463 2133.33 293.294C2204.44 298.8 2275.56 298.8 2346.67 254.506C2417.78 210.537 2488.89 121.463 2560 116.2C2631.11 110.937 2702.22 187.863 2773.33 199.2C2844.44 210.537 2915.56 154.663 2986.67 138.306C3057.78 121.463 3128.89 144.137 3200 143.894C3271.11 144.137 3342.22 121.463 3413.33 105.106C3484.44 88.2634 3555.56 77.7366 3626.67 77.4937C3697.78 77.7366 3768.89 88.2634 3840 83C3911.11 77.7366 3982.22 55.0634 4053.33 44.2937C4124.44 33.2 4195.56 33.2 4266.67 27.6937C4337.78 21.8634 4408.89 11.3366 4480 38.7063C4551.11 66.4 4622.22 132.8 4693.33 154.906C4764.44 177.337 4835.56 154.663 4906.67 138.306C4977.78 121.463 5048.89 110.937 5084.44 105.106L5120 99.6V332H5084.44C5048.89 332 4977.78 332 4906.67 332C4835.56 332 4764.44 332 4693.33 332C4622.22 332 4551.11 332 4480 332C4408.89 332 4337.78 332 4266.67 332C4195.56 332 4124.44 332 4053.33 332C3982.22 332 3911.11 332 3840 332C3768.89 332 3697.78 332 3626.67 332C3555.56 332 3484.44 332 3413.33 332C3342.22 332 3271.11 332 3200 332C3128.89 332 3057.78 332 2986.67 332C2915.56 332 2844.44 332 2773.33 332C2702.22 332 2631.11 332 2560 332C2488.89 332 2417.78 332 2346.67 332C2275.56 332 2204.44 332 2133.33 332C2062.22 332 1991.11 332 1920 332C1848.89 332 1777.78 332 1706.67 332C1635.56 332 1564.44 332 1493.33 332C1422.22 332 1351.11 332 1280 332C1208.89 332 1137.78 332 1066.67 332C995.556 332 924.444 332 853.333 332C782.222 332 711.111 332 640 332C568.889 332 497.778 332 426.667 332C355.556 332 284.444 332 213.333 332C142.222 332 71.1111 332 35.5556 332H0V132.8Z" fill="url(#paint1_linear_1_56)"/>
</g>
<defs>
<linearGradient id="paint0_linear_1_56" x1="0" y1="332" x2="0" y2="6.92342" gradientUnits="userSpaceOnUse">
<stop stop-color="#F36A3E"/>
<stop offset="1" stop-color="#FFB30B"/>
</linearGradient>
<linearGradient id="paint1_linear_1_56" x1="0" y1="332" x2="0" y2="20.7493" gradientUnits="userSpaceOnUse">
<stop stop-color="#F36A3E"/>
<stop offset="1" stop-color="#FFB30B"/>
</linearGradient>
<clipPath id="clip0_1_56">
<rect width="1280" height="332" fill="white"/>
</clipPath>
</defs>
</svg>
