<svg width="25" height="25" viewBox="0 0 25 25" fill="none" xmlns="http://www.w3.org/2000/svg">
<path fill-rule="evenodd" clip-rule="evenodd" d="M12.7039 0C5.91024 0 0.407715 5.50252 0.407715 12.2961C0.407715 17.7372 3.92748 22.3329 8.8152 23.9621C9.43001 24.0697 9.66056 23.7008 9.66056 23.378C9.66056 23.086 9.64519 22.1177 9.64519 21.0879C6.55578 21.6566 5.75653 20.3347 5.51061 19.6431C5.37228 19.2896 4.77284 18.1983 4.25026 17.9062C3.81989 17.6757 3.20509 17.107 4.23489 17.0916C5.20321 17.0763 5.89487 17.9831 6.12542 18.352C7.23207 20.2118 8.99964 19.6892 9.70667 19.3664C9.81426 18.5672 10.137 18.0292 10.4905 17.7218C7.75466 17.4144 4.89581 16.3539 4.89581 11.6506C4.89581 10.3134 5.37228 9.20673 6.15616 8.346C6.0332 8.0386 5.60283 6.77825 6.27912 5.08753C6.27912 5.08753 7.30892 4.76475 9.66056 6.34788C10.6442 6.07122 11.6894 5.93289 12.7346 5.93289C13.7798 5.93289 14.8249 6.07122 15.8086 6.34788C18.1603 4.74938 19.1901 5.08753 19.1901 5.08753C19.8664 6.77825 19.436 8.0386 19.313 8.346C20.0969 9.20673 20.5734 10.298 20.5734 11.6506C20.5734 16.3692 17.6992 17.4144 14.9633 17.7218C15.409 18.1061 15.7933 18.8438 15.7933 19.9966C15.7933 21.6412 15.7779 22.963 15.7779 23.378C15.7779 23.7008 16.0084 24.0851 16.6232 23.9621C21.4802 22.3329 25 17.7218 25 12.2961C25 5.50252 19.4975 0 12.7039 0Z" fill="white"/>
</svg>
