<svg width="26" height="24" viewBox="0 0 26 24" fill="none" xmlns="http://www.w3.org/2000/svg">
<mask id="path-1-inside-1_420_109" fill="white">
<path d="M25.2503 13.6086L23.8727 9.36964L21.1468 0.961664C21.1154 0.867862 21.0554 0.786305 20.9752 0.728522C20.895 0.670738 20.7987 0.639648 20.6999 0.639648C20.6011 0.639648 20.5048 0.670738 20.4246 0.728522C20.3444 0.786305 20.2844 0.867862 20.253 0.961664L17.5285 9.36454H8.47076L5.74483 0.961664C5.71345 0.867862 5.65342 0.786305 5.57322 0.728522C5.49303 0.670738 5.39672 0.639648 5.29792 0.639648C5.19911 0.639648 5.10281 0.670738 5.02261 0.728522C4.94241 0.786305 4.88238 0.867862 4.851 0.961664L2.13018 9.36454L0.751916 13.6086C0.690832 13.7971 0.690766 14 0.751728 14.1885C0.812691 14.377 0.931565 14.5414 1.09138 14.6582L12.9989 23.3229L24.9064 14.6582C25.0669 14.5419 25.1866 14.3777 25.2484 14.1892C25.3101 14.0008 25.3108 13.7975 25.2503 13.6086Z"/>
</mask>
<path d="M23.8727 9.36964L22.911 9.68144L22.9112 9.6821L23.8727 9.36964ZM21.1468 0.961664L22.1086 0.64985L22.1056 0.64091L21.1468 0.961664ZM20.253 0.961664L19.2942 0.640896L19.2913 0.649843L20.253 0.961664ZM17.5285 9.36454V10.3756H18.2635L18.4902 9.67636L17.5285 9.36454ZM8.47076 9.36454L7.50908 9.67651L7.73585 10.3756H8.47076V9.36454ZM5.74483 0.961664L6.70655 0.649679L6.70362 0.64091L5.74483 0.961664ZM4.851 0.961664L3.89217 0.640895L3.88915 0.65022L4.851 0.961664ZM2.13018 9.36454L3.09176 9.67681L3.09203 9.67598L2.13018 9.36454ZM0.751916 13.6086L-0.209666 13.2964L-0.209832 13.2969L0.751916 13.6086ZM1.09138 14.6582L0.494775 15.4744L0.496521 15.4757L1.09138 14.6582ZM12.9989 23.3229L12.404 24.1404L12.9989 24.5732L13.5938 24.1404L12.9989 23.3229ZM24.9064 14.6582L24.3132 13.8395L24.3116 13.8407L24.9064 14.6582ZM26.2118 13.2962L24.8343 9.05718L22.9112 9.6821L24.2887 13.9211L26.2118 13.2962ZM24.8345 9.05784L22.1085 0.649864L20.1851 1.27347L22.911 9.68144L24.8345 9.05784ZM22.1056 0.64091C22.007 0.346328 21.8185 0.0899846 21.5662 -0.0917463L20.3842 1.54879C20.2924 1.48263 20.2238 1.3894 20.188 1.28242L22.1056 0.64091ZM21.5662 -0.0917463C21.314 -0.273489 21.0109 -0.371367 20.6999 -0.371367V1.65066C20.5865 1.65066 20.476 1.61496 20.3842 1.54879L21.5662 -0.0917463ZM20.6999 -0.371367C20.3889 -0.371367 20.0858 -0.273489 19.8336 -0.0917463L21.0156 1.54879C20.9238 1.61496 20.8133 1.65066 20.6999 1.65066V-0.371367ZM19.8336 -0.0917463C19.5813 0.0899846 19.3927 0.346328 19.2942 0.64091L21.2118 1.28242C21.176 1.3894 21.1074 1.48263 21.0156 1.54879L19.8336 -0.0917463ZM19.2913 0.649843L16.5668 9.05271L18.4902 9.67636L21.2147 1.27349L19.2913 0.649843ZM17.5285 8.35352H8.47076V10.3756H17.5285V8.35352ZM9.43244 9.05256L6.70651 0.649692L4.78315 1.27364L7.50908 9.67651L9.43244 9.05256ZM6.70362 0.64091C6.60507 0.346328 6.41647 0.0899846 6.16425 -0.0917463L4.9822 1.54879C4.89037 1.48263 4.82183 1.3894 4.78605 1.28242L6.70362 0.64091ZM6.16425 -0.0917463C5.91202 -0.273489 5.60896 -0.371367 5.29792 -0.371367V1.65066C5.18448 1.65066 5.07404 1.61496 4.9822 1.54879L6.16425 -0.0917463ZM5.29792 -0.371367C4.98687 -0.371367 4.68382 -0.273488 4.43158 -0.0917463L5.61364 1.54879C5.5218 1.61496 5.41135 1.65066 5.29792 1.65066V-0.371367ZM4.43158 -0.0917463C4.17936 0.0899846 3.99077 0.346328 3.89222 0.64091L5.80979 1.28242C5.774 1.3894 5.70546 1.48263 5.61364 1.54879L4.43158 -0.0917463ZM3.88915 0.65022L1.16833 9.05309L3.09203 9.67598L5.81285 1.27311L3.88915 0.65022ZM1.16859 9.05227L-0.209666 13.2964L1.7135 13.9209L3.09176 9.67681L1.16859 9.05227ZM-0.209832 13.2969C-0.336538 13.6878 -0.336674 14.1087 -0.210221 14.4996L1.71368 13.8774C1.71821 13.8914 1.7182 13.9064 1.71366 13.9204L-0.209832 13.2969ZM-0.210221 14.4996C-0.0837651 14.8906 0.162892 15.2318 0.494776 15.4744L1.68799 13.842C1.70024 13.8509 1.70915 13.8634 1.71368 13.8774L-0.210221 14.4996ZM0.496521 15.4757L12.404 24.1404L13.5938 22.5054L1.68624 13.8407L0.496521 15.4757ZM13.5938 24.1404L25.5013 15.4757L24.3116 13.8407L12.404 22.5054L13.5938 24.1404ZM25.4997 15.4768C25.8329 15.2354 26.0811 14.8948 26.2091 14.504L24.2876 13.8745C24.2921 13.8606 24.301 13.8483 24.3132 13.8395L25.4997 15.4768ZM26.2091 14.504C26.3372 14.1132 26.3386 13.6919 26.2131 13.3002L24.2875 13.9171C24.283 13.9032 24.2831 13.8883 24.2876 13.8745L26.2091 14.504Z" fill="white" mask="url(#path-1-inside-1_420_109)"/>
<path d="M9.16918 9.86928H16.833L13.0017 21.6772L9.16918 9.86928Z" stroke="white" stroke-width="1.01102"/>
<path d="M3.16748 9.86928H8.10332L11.6299 20.7351L3.16748 9.86928Z" stroke="white" stroke-width="1.01102"/>
<path d="M1.23056 13.7639C1.23057 13.7639 1.23058 13.7638 1.23059 13.7638L2.31429 10.4307L10.3933 20.8031L1.38749 14.2493C1.38737 14.2492 1.38724 14.2491 1.38712 14.2491C1.31352 14.1951 1.25867 14.1193 1.23051 14.0322C1.2023 13.945 1.20232 13.8511 1.23056 13.7639Z" stroke="white" stroke-width="1.01102"/>
<path d="M7.77936 8.86342H2.82455L5.29732 1.22662L7.77936 8.86342Z" stroke="white" stroke-width="1.01102"/>
<path d="M17.8961 9.86928H22.8388L14.3698 20.7378L17.8961 9.86928Z" stroke="white" stroke-width="1.01102"/>
<path d="M15.605 20.7978L23.685 10.4303L24.7694 13.7638C24.7694 13.7639 24.7695 13.764 24.7695 13.7641C24.7977 13.8513 24.7977 13.9451 24.7695 14.0322C24.7413 14.1192 24.6866 14.195 24.613 14.2489C24.6129 14.2491 24.6127 14.2492 24.6125 14.2493L15.605 20.7978Z" stroke="white" stroke-width="1.01102"/>
<path d="M20.7013 1.22662L23.1787 8.86342H18.2239L20.7013 1.22662Z" stroke="white" stroke-width="1.01102"/>
</svg>
