<svg width="25" height="25" viewBox="0 0 25 25" fill="none" xmlns="http://www.w3.org/2000/svg">
<path d="M24.6481 1.80826V22.784C24.6481 23.2636 24.4576 23.7235 24.1184 24.0627C23.7793 24.4018 23.3194 24.5923 22.8398 24.5923H1.86404C1.38446 24.5923 0.924526 24.4018 0.585412 24.0627C0.246298 23.7235 0.0557861 23.2636 0.0557861 22.784L0.0557861 1.80826C0.0557861 1.32868 0.246298 0.86874 0.585412 0.529626C0.924526 0.190512 1.38446 0 1.86404 0L22.8398 0C23.3194 0 23.7793 0.190512 24.1184 0.529626C24.4576 0.86874 24.6481 1.32868 24.6481 1.80826ZM7.28881 9.40293H3.6723V20.9758H7.28881V9.40293ZM7.61429 5.42477C7.6162 5.15121 7.56421 4.87995 7.46128 4.62649C7.35835 4.37302 7.2065 4.14231 7.01441 3.94753C6.82232 3.75275 6.59374 3.59772 6.34173 3.49128C6.08972 3.38484 5.81921 3.32908 5.54565 3.32719H5.48055C4.92424 3.32719 4.39071 3.54818 3.99734 3.94156C3.60397 4.33493 3.38298 4.86845 3.38298 5.42477C3.38298 5.98108 3.60397 6.51461 3.99734 6.90798C4.39071 7.30135 4.92424 7.52234 5.48055 7.52234C5.75413 7.52907 6.02636 7.48183 6.28167 7.38332C6.53698 7.2848 6.77039 7.13695 6.96854 6.9482C7.16669 6.75945 7.32571 6.53351 7.43651 6.28328C7.54731 6.03305 7.60773 5.76345 7.61429 5.48986V5.42477ZM21.0316 13.9453C21.0316 10.4662 18.8182 9.11361 16.6194 9.11361C15.8995 9.07756 15.1826 9.2309 14.5405 9.55834C13.8983 9.88578 13.3532 10.3759 12.9595 10.9797H12.8582V9.40293H9.45872V20.9758H13.0752V14.8205C13.0229 14.1901 13.2215 13.5645 13.6278 13.0796C14.0341 12.5948 14.6153 12.2898 15.2451 12.231H15.3826C16.5326 12.231 17.3861 12.9543 17.3861 14.7771V20.9758H21.0026L21.0316 13.9453Z" fill="white"/>
</svg>
