<svg width="40" height="40" viewBox="0 0 40 40" fill="none" xmlns="http://www.w3.org/2000/svg">
<path d="M38.0005 20.0007C38.0005 22.3645 37.5349 24.7052 36.6303 26.889C35.7257 29.0729 34.3999 31.0572 32.7284 32.7287C31.057 34.4001 29.0727 35.726 26.8888 36.6306C24.7049 37.5351 22.3643 38.0007 20.0005 38.0007C17.6367 38.0007 15.296 37.5351 13.1122 36.6306C10.9283 35.726 8.94402 34.4001 7.27257 32.7287C5.60111 31.0572 4.27524 29.0729 3.37066 26.889C2.46607 24.7052 2.00049 22.3645 2.00049 20.0007" stroke="white" stroke-width="2"/>
<path d="M2.00049 20.0007C2.00049 17.6369 2.46607 15.2963 3.37066 13.1124C4.27524 10.9286 5.60112 8.94426 7.27257 7.2728C8.94403 5.60135 10.9283 4.27548 13.1122 3.3709C15.2961 2.46631 17.6367 2.00073 20.0005 2.00073C22.3643 2.00073 24.7049 2.46632 26.8888 3.37091C29.0727 4.2755 31.057 5.60137 32.7284 7.27283C34.3999 8.94428 35.7257 10.9286 36.6303 13.1125C37.5349 15.2963 38.0005 17.637 38.0005 20.0008" stroke="#F47039" stroke-width="2"/>
<path d="M37.9998 20.0608C37.992 22.4245 37.5186 24.7636 36.6068 26.9445C35.695 29.1253 34.3625 31.1052 32.6855 32.7711C31.0085 34.437 29.0198 35.7563 26.833 36.6536C24.6461 37.551 22.304 38.0088 19.9402 38.0009C17.5764 37.9931 15.2373 37.5197 13.0565 36.6079C10.8756 35.6961 8.89571 34.3636 7.22982 32.6866C5.56392 31.0096 4.24464 29.0209 3.34731 26.8341C2.44998 24.6472 1.99217 22.305 2.00002 19.9413" stroke="#F47039" stroke-width="2"/>
</svg>
