<svg width="25" height="25" viewBox="0 0 25 25" fill="none" xmlns="http://www.w3.org/2000/svg">
<path d="M12.6585 6.00887C12.4422 6.00887 12.2283 6.0199 12.0176 6.04149C11.8068 6.06307 11.599 6.09506 11.3947 6.13705C11.1904 6.17904 10.9897 6.23104 10.7931 6.29242L10.2159 6.50435L9.66638 6.7697L9.14782 7.08523L8.66329 7.44764L8.21618 7.85378L7.80965 8.30049L7.44685 8.78446L7.13092 9.30255L6.86541 9.85145C6.78561 10.0392 6.71462 10.2317 6.65317 10.4282C6.59172 10.6246 6.53972 10.8252 6.49765 11.0293C6.45558 11.2333 6.42359 11.4409 6.40192 11.6515C6.38026 11.8621 6.36938 12.0758 6.36938 12.2918C6.36938 12.5078 6.38041 12.7215 6.40192 12.9321C6.42331 13.141 6.45526 13.3487 6.49765 13.5544C6.53972 13.7593 6.59172 13.9591 6.65317 14.1556C6.71462 14.352 6.78553 14.5444 6.86541 14.7323L7.13092 15.2812L7.44685 15.7992L7.80965 16.2832L8.21618 16.7299L8.66329 17.1361L9.14782 17.4985L9.66638 17.814L10.2159 18.0794L10.7931 18.2913L11.3947 18.4467C11.6006 18.489 11.8085 18.5209 12.0176 18.5423C12.2305 18.564 12.4444 18.5749 12.6585 18.5748C12.8747 18.5748 13.0886 18.5638 13.2993 18.5423C13.5084 18.5209 13.7163 18.489 13.9222 18.4467L14.5239 18.2913L15.101 18.0794L15.6505 17.814L16.1691 17.4985L16.6537 17.1361L17.1008 16.7299L17.5074 16.2832L17.8702 15.7992L18.1861 15.2812L18.4516 14.7323L18.6639 14.1556C18.7253 13.9591 18.7773 13.7585 18.8194 13.5544L18.9151 12.932C18.9367 12.7214 18.9477 12.5078 18.9477 12.2917C18.9477 12.0757 18.9367 11.862 18.9151 11.6515C18.8937 11.4426 18.8618 11.2349 18.8194 11.0292C18.7773 10.8244 18.7253 10.6246 18.6639 10.4281L18.4516 9.85137L18.1861 9.30248L17.8702 8.78438L17.5074 8.30041L17.1008 7.8537L16.6537 7.44756L16.1691 7.08515L15.6505 6.76962L15.101 6.50427L14.5239 6.29234L13.9222 6.13697L13.2993 6.04141C13.0864 6.01966 12.8725 6.00877 12.6585 6.00879V6.00887ZM12.6585 8.1775C12.8015 8.1775 12.9426 8.18459 13.0816 8.19862L13.4912 8.26062L13.887 8.36147L14.2659 8.49911L14.6262 8.67164L14.965 8.87688L15.2817 9.113L15.5737 9.37787L15.8388 9.66953L16.0751 9.98594L16.2806 10.3252L16.4532 10.6852C16.505 10.8085 16.551 10.9347 16.591 11.0639C16.6311 11.193 16.6647 11.325 16.6919 11.4594C16.7191 11.5938 16.7391 11.7306 16.7539 11.8694L16.775 12.2922C16.775 12.435 16.7679 12.5761 16.7539 12.715C16.7399 12.854 16.7192 12.9908 16.6919 13.1251C16.6645 13.2595 16.6308 13.3914 16.591 13.5206L16.4532 13.8993L16.2806 14.2593L16.0751 14.5985L15.8388 14.915L15.5737 15.2066L15.2817 15.4715L14.965 15.7076L14.6262 15.9129L14.2659 16.0854L13.887 16.223L13.4912 16.3239L13.0816 16.3858C12.9409 16.3999 12.7997 16.4069 12.6584 16.4069C12.5171 16.4069 12.3758 16.3999 12.2352 16.3858L11.8255 16.3239C11.691 16.2966 11.559 16.2629 11.4297 16.223L11.0507 16.0854L10.6904 15.9129L10.3517 15.7076L10.0349 15.4715L9.74296 15.2066L9.47785 14.915L9.24149 14.5985L9.03602 14.2593L8.86348 13.8993L8.72561 13.5206L8.62476 13.1251L8.56276 12.715C8.54866 12.5745 8.54161 12.4334 8.54165 12.2922C8.54161 12.151 8.54866 12.0099 8.56276 11.8694C8.5767 11.7306 8.59742 11.5937 8.62476 11.4594C8.65183 11.326 8.68551 11.194 8.72569 11.064L8.86356 10.6853L9.0361 10.3253L9.24157 9.98601L9.47793 9.66961L9.74304 9.37795L10.035 9.11308L10.3517 8.87696L10.6905 8.67172L11.0508 8.49918C11.1748 8.44711 11.3013 8.40117 11.4298 8.36155L11.8256 8.2607C11.9601 8.23344 12.0971 8.21264 12.2353 8.1987C12.376 8.18461 12.5172 8.17756 12.6586 8.17758L12.6585 8.1775Z" fill="white"/>
<path d="M19.2027 4.22168C19.1527 4.22169 19.1028 4.22421 19.0531 4.22924C19.0034 4.23426 18.954 4.24179 18.9051 4.25178C18.8562 4.26176 18.8077 4.27419 18.76 4.28904C18.7123 4.3039 18.6654 4.32115 18.6194 4.34072C18.5734 4.36032 18.5284 4.38223 18.4846 4.40635C18.4408 4.43043 18.3982 4.4567 18.357 4.48506C18.3158 4.51345 18.276 4.5439 18.2378 4.57629C18.1996 4.60865 18.163 4.64291 18.1283 4.67895C18.0935 4.715 18.0605 4.75279 18.0295 4.79216C17.9984 4.83154 17.9694 4.87245 17.9424 4.91475C17.9154 4.95702 17.8906 5.00061 17.868 5.04538C17.8453 5.09017 17.8249 5.13608 17.8067 5.18294C17.7887 5.22978 17.7729 5.2775 17.7596 5.32593C17.7462 5.37436 17.7353 5.42342 17.7268 5.47294C17.7183 5.52246 17.7123 5.57236 17.7087 5.62248C17.7062 5.65798 17.705 5.69356 17.705 5.72915C17.705 5.77943 17.7075 5.82968 17.7124 5.87971C17.7174 5.92972 17.7249 5.97944 17.7348 6.02869C17.7447 6.07795 17.7571 6.12667 17.7718 6.17468C17.7866 6.22271 17.8038 6.26996 17.8232 6.31626C17.8427 6.36257 17.8644 6.40788 17.8884 6.45201C17.9123 6.49613 17.9384 6.53901 17.9666 6.5805C17.9948 6.62197 18.025 6.66199 18.0572 6.70042C18.0894 6.73887 18.1234 6.77568 18.1592 6.81071C18.1951 6.84572 18.2326 6.87891 18.2717 6.91014C18.3109 6.9414 18.3515 6.97066 18.3935 6.99783C18.4356 7.025 18.4789 7.05003 18.5235 7.07283C18.5679 7.09565 18.6135 7.11621 18.6601 7.13444C18.7066 7.15265 18.754 7.16851 18.8021 7.18195C18.8502 7.19537 18.899 7.20636 18.9482 7.21488C18.9974 7.22344 19.047 7.22951 19.0968 7.23308C19.132 7.2356 19.1674 7.23686 19.2027 7.23686C19.2527 7.23688 19.3026 7.23438 19.3523 7.22938C19.402 7.22436 19.4514 7.21684 19.5003 7.20685C19.5492 7.19687 19.5976 7.18443 19.6453 7.16958C19.6931 7.15472 19.74 7.13747 19.786 7.1179C19.832 7.09832 19.877 7.07645 19.9208 7.05235C19.9646 7.02824 20.0072 7.00195 20.0484 6.97356C20.0896 6.9452 20.1294 6.91477 20.1676 6.88241C20.2058 6.85002 20.2423 6.81573 20.2771 6.77967C20.3119 6.74362 20.3449 6.70583 20.3759 6.66646C20.4069 6.62708 20.436 6.58617 20.463 6.54387C20.4899 6.50158 20.5148 6.45795 20.5374 6.41316C20.5601 6.36837 20.5805 6.32246 20.5986 6.27561C20.6167 6.22876 20.6325 6.18104 20.6458 6.13261C20.6592 6.08419 20.6701 6.03512 20.6786 5.9856C20.6871 5.93609 20.6931 5.88618 20.6967 5.83606C20.6992 5.80056 20.7004 5.76498 20.7004 5.72939C20.7004 5.67913 20.6979 5.62891 20.6929 5.57891C20.688 5.52891 20.6805 5.47918 20.6706 5.42993C20.6607 5.38067 20.6483 5.33195 20.6335 5.28394C20.6188 5.23591 20.6016 5.18866 20.5822 5.14236C20.5627 5.09605 20.541 5.05074 20.517 5.00662C20.4931 4.9625 20.467 4.91961 20.4388 4.87812C20.4106 4.83662 20.3803 4.79658 20.3481 4.75813C20.316 4.71967 20.2819 4.68286 20.2462 4.64783C20.2103 4.61282 20.1728 4.57964 20.1337 4.5484C20.0945 4.51717 20.0539 4.48793 20.0119 4.46079C19.9698 4.43363 19.9265 4.40859 19.8819 4.38579C19.8374 4.36297 19.7919 4.34241 19.7453 4.32418C19.6988 4.30597 19.6514 4.29011 19.6033 4.27667C19.5552 4.26322 19.5064 4.25221 19.4572 4.24366C19.408 4.23513 19.3584 4.22908 19.3086 4.22554C19.2734 4.22302 19.238 4.22176 19.2027 4.22176V4.22168Z" fill="white"/>
<path d="M11.4662 0.000229117C10.7822 -0.000873873 10.1718 0.001962 9.62343 0.00968293L8.1533 0.0490754C7.71778 0.0679838 7.33299 0.0926418 6.9876 0.12455C6.8149 0.140464 6.65197 0.15827 6.49756 0.177887C6.35061 0.196408 6.20407 0.217975 6.05801 0.242571C5.91896 0.266206 5.78699 0.291731 5.66047 0.319464C5.53394 0.347196 5.41308 0.377136 5.29648 0.40928C5.18249 0.440712 5.06939 0.475286 4.95731 0.512962C4.84748 0.549991 4.74033 0.589225 4.63453 0.631139C4.42291 0.714966 4.21649 0.809034 4.00393 0.914448C3.84037 0.995597 3.68926 1.07777 3.54572 1.16475C3.40217 1.25173 3.26619 1.34359 3.13304 1.44365C2.99592 1.54719 2.86376 1.65714 2.73699 1.77313C2.60447 1.89383 2.46912 2.02658 2.32849 2.17493C2.15177 2.36031 1.99822 2.53317 1.86192 2.70279C1.79377 2.78756 1.72996 2.87139 1.66984 2.95569C1.6104 3.03877 1.55356 3.12369 1.49943 3.21032C1.44586 3.2962 1.39512 3.38365 1.34659 3.47362C1.2973 3.56515 1.25072 3.6581 1.2069 3.75236C1.11725 3.94491 1.03358 4.15228 0.950065 4.38375C0.88811 4.55487 0.832632 4.72827 0.78375 4.90357C0.733879 5.08273 0.689523 5.27016 0.649972 5.47287C0.610422 5.67558 0.575914 5.89358 0.545582 6.13467C0.512896 6.39893 0.486784 6.66396 0.46727 6.92953C0.44521 7.2215 0.426932 7.54279 0.411963 7.9004L0.37651 9.08942L0.357444 10.5388L0.351929 12.2908L0.36808 14.8384L0.418502 16.7687L0.457343 17.5226L0.505875 18.1474C0.521432 18.3158 0.540897 18.4838 0.564255 18.6513C0.585526 18.8001 0.608374 18.9302 0.632955 19.0429C0.682831 19.2719 0.741809 19.4989 0.809749 19.7233C0.874799 19.9381 0.949191 20.1499 1.03271 20.3583C1.1148 20.5623 1.20462 20.7591 1.30231 20.9485C1.40001 21.1379 1.50558 21.3199 1.61903 21.4947C1.73248 21.6696 1.85381 21.8372 1.98333 21.9977C2.11271 22.1582 2.25032 22.3119 2.39561 22.4581C2.54113 22.6047 2.6946 22.7441 2.85635 22.8766C3.02001 23.0107 3.19012 23.1366 3.36609 23.254C3.52941 23.3632 3.691 23.4632 3.85377 23.555C4.01654 23.6468 4.18072 23.73 4.34948 23.8057C4.51824 23.8815 4.69125 23.9496 4.87198 24.0109C5.05272 24.0722 5.24101 24.1267 5.44002 24.1751C5.63904 24.2235 5.84971 24.2659 6.07267 24.303C6.29563 24.34 6.53395 24.3717 6.78859 24.3991C7.04322 24.4264 7.31487 24.449 7.60677 24.4679C7.89867 24.4868 8.21066 24.502 8.54589 24.5141C9.06374 24.5329 9.84765 24.5438 10.7516 24.548L13.6781 24.5421L16.4493 24.5032L17.503 24.4736L18.1894 24.4383C18.3367 24.4263 18.4809 24.4122 18.6201 24.3955C18.7592 24.3789 18.8964 24.3599 19.03 24.3383C19.1637 24.3167 19.2943 24.2926 19.4226 24.2659C19.5495 24.2394 19.6757 24.2099 19.8011 24.1774C19.9253 24.1459 20.0477 24.11 20.1689 24.072C20.2901 24.0339 20.41 23.9928 20.5292 23.9487C20.6491 23.9043 20.7678 23.857 20.8854 23.8068C21.0038 23.7563 21.1221 23.7025 21.2408 23.6453C21.423 23.5575 21.5697 23.4843 21.6985 23.4128C21.8197 23.3464 21.9364 23.2721 22.0478 23.1904C22.1578 23.1094 22.2672 23.0172 22.3932 22.9011C22.5193 22.7849 22.6621 22.645 22.839 22.4681C22.9944 22.3127 23.1255 22.1777 23.2386 22.0548C23.3516 21.932 23.4469 21.8215 23.5304 21.715C23.61 21.6139 23.6842 21.5086 23.7526 21.3997C23.8193 21.2933 23.8808 21.1828 23.9434 21.0603C24.0376 20.876 24.1215 20.7052 24.1965 20.5405C24.2694 20.3817 24.336 20.2202 24.3962 20.0561C24.4554 19.8934 24.5067 19.7279 24.5499 19.5602C24.5943 19.3876 24.6326 19.2055 24.6657 19.0057C24.6988 18.8059 24.7268 18.5884 24.751 18.3456C24.7753 18.1028 24.7959 17.8345 24.8141 17.533L24.8621 16.5208L24.9034 15.2621L24.9329 13.8597L24.9442 12.3933L24.9179 9.51336L24.8827 8.22341L24.8346 7.11585L24.7747 6.25237C24.753 6.01207 24.7295 5.82283 24.7046 5.69489C24.6771 5.55352 24.6463 5.41279 24.6123 5.27284C24.5792 5.13665 24.5428 5.00128 24.5032 4.86686C24.4645 4.73589 24.4225 4.60593 24.3773 4.47711C24.3325 4.34987 24.2851 4.22531 24.2355 4.10343C24.1858 3.98155 24.1321 3.86251 24.0762 3.74598C24.0202 3.62946 23.9616 3.51577 23.9001 3.40469C23.8385 3.2936 23.7744 3.18527 23.7074 3.07962C23.6403 2.97397 23.5705 2.871 23.4978 2.77078C23.4255 2.67089 23.3501 2.57328 23.2717 2.4781C23.1937 2.38344 23.1127 2.29126 23.0289 2.20172C22.9452 2.11228 22.8586 2.02552 22.7694 1.94157C22.6802 1.85759 22.5882 1.77628 22.4934 1.69765C22.3982 1.61876 22.3005 1.54286 22.2006 1.47004C22.0996 1.39648 21.9964 1.32601 21.8911 1.25874C21.7844 1.19051 21.6757 1.12546 21.5651 1.06367C21.4526 1.00084 21.3383 0.941259 21.2224 0.884983C21.03 0.791465 20.8521 0.708506 20.6774 0.634921C20.5058 0.561892 20.3307 0.497031 20.1529 0.440558C19.9741 0.384226 19.7879 0.335932 19.583 0.294254C19.3782 0.252577 19.1548 0.217833 18.902 0.188288C18.6492 0.158744 18.3669 0.134873 18.0441 0.115019C17.7212 0.0951651 17.3581 0.0795644 16.9434 0.0669588L15.5343 0.0354453L13.7508 0.0144098L11.467 0.000385398L11.4662 0.000229117ZM12.6523 2.16697L15.9458 2.18572L17.1882 2.20968C17.5304 2.21929 17.7915 2.23055 17.9445 2.24355C18.1439 2.26033 18.3337 2.28137 18.5153 2.30658C18.6896 2.33065 18.8631 2.36057 19.0353 2.39632C19.2008 2.43098 19.3586 2.47038 19.5096 2.51481C19.6606 2.55924 19.8049 2.60904 19.9433 2.66411C20.0818 2.71918 20.2141 2.77976 20.3415 2.8461C20.4679 2.91194 20.5907 2.98439 20.7094 3.06315C20.8276 3.14154 20.9415 3.226 21.0521 3.317C21.1628 3.40799 21.27 3.50553 21.3747 3.60984C21.4852 3.7199 21.5872 3.83202 21.6812 3.94767C21.7748 4.06261 21.8614 4.18308 21.9406 4.30843C22.0207 4.43556 22.0928 4.56751 22.1566 4.70354C22.2219 4.8422 22.2805 4.98874 22.3331 5.1445C22.3857 5.30025 22.4326 5.46578 22.4741 5.64265C22.5176 5.83017 22.554 6.01926 22.5833 6.20951C22.6148 6.4112 22.6418 6.62628 22.6646 6.85657C22.6875 7.08686 22.7064 7.33243 22.722 7.59518C22.7344 7.80593 22.7453 8.08404 22.7545 8.4125L22.7776 9.53243L22.7953 12.2757L22.7752 15.0164L22.7511 16.1331L22.7179 16.9453C22.6949 17.3256 22.6706 17.6453 22.6416 17.9236C22.6271 18.0627 22.6113 18.1915 22.5938 18.3122C22.5774 18.4263 22.558 18.54 22.5356 18.6531C22.5151 18.7562 22.4913 18.8587 22.4643 18.9603C22.4384 19.0573 22.4093 19.1534 22.3769 19.2484C22.3443 19.3439 22.3089 19.4384 22.2706 19.5317C22.2302 19.6303 22.1875 19.728 22.1426 19.8246C22.1027 19.9109 22.0607 19.9948 22.0162 20.0765C21.9723 20.1573 21.9256 20.2367 21.8763 20.3144C21.8275 20.3914 21.7763 20.4661 21.7227 20.5385C21.6694 20.6107 21.6135 20.6809 21.5552 20.749C21.497 20.8169 21.4364 20.8826 21.3734 20.946C21.3104 21.0094 21.245 21.0706 21.1773 21.1297C21.1095 21.1888 21.0392 21.2456 20.9665 21.3002C20.8938 21.3549 20.8185 21.4074 20.7408 21.4576C20.663 21.5079 20.5828 21.5561 20.5 21.6021C20.4172 21.6481 20.3318 21.6921 20.244 21.7339C20.1546 21.7764 20.064 21.8162 19.9722 21.8532C19.8774 21.8915 19.7815 21.9271 19.6847 21.96C19.4877 22.0271 19.28 22.086 19.0612 22.1368C18.8333 22.1895 18.6033 22.2325 18.3717 22.2659C18.2827 22.2789 18.0781 22.2911 17.785 22.3025L16.6682 22.3335L13.5018 22.3746L10.1876 22.3798L8.88608 22.366L8.04096 22.3396L7.41777 22.2958C7.22427 22.2795 7.04432 22.2614 6.87572 22.2408C6.70712 22.2203 6.55011 22.1974 6.40238 22.1715C6.2624 22.1473 6.12326 22.1184 5.98522 22.0848C5.85935 22.0542 5.73476 22.0185 5.61178 21.9779C5.4932 21.9385 5.37983 21.8951 5.26953 21.8475C5.15923 21.7998 5.05209 21.7476 4.94596 21.6905C4.83984 21.6335 4.73482 21.5716 4.62862 21.504C4.54849 21.4531 4.47105 21.4016 4.39652 21.347C4.32199 21.2924 4.24998 21.238 4.18065 21.1809C4.11131 21.1239 4.04474 21.0651 3.98053 21.0046C3.91675 20.9444 3.85515 20.8819 3.79586 20.8173C3.73677 20.7528 3.68028 20.6865 3.62608 20.6178C3.57166 20.5488 3.51981 20.4779 3.47063 20.4051C3.42073 20.3312 3.3735 20.2555 3.32906 20.1782C3.28415 20.1002 3.24145 20.0195 3.20087 19.9363C3.15962 19.8515 3.12113 19.7654 3.08545 19.6781C3.04921 19.5893 3.01486 19.4975 2.98256 19.4028C2.91796 19.2134 2.86123 19.0117 2.81191 18.7966C2.76259 18.5815 2.72052 18.353 2.68491 18.1096C2.6493 17.8661 2.62062 17.608 2.59777 17.3337C2.58091 17.1316 2.56752 16.8169 2.55728 16.4198L2.53585 15.0076L2.54373 11.4075L2.60573 7.96744L2.653 6.75541L2.67979 6.35479C2.68909 6.2478 2.6987 6.16854 2.70855 6.12096C2.74101 5.96441 2.7737 5.81874 2.8075 5.68236C2.83907 5.5537 2.8742 5.42594 2.91284 5.29923C2.94955 5.17963 2.98823 5.0676 3.0296 4.96148C3.06948 4.85867 3.11393 4.7577 3.16282 4.65886C3.21057 4.56275 3.26185 4.47073 3.31755 4.38115C3.37326 4.29157 3.43337 4.20467 3.49892 4.11824C3.56447 4.03181 3.63506 3.94649 3.71187 3.85998C3.78869 3.77348 3.87165 3.68611 3.96162 3.59606C4.06648 3.4906 4.17567 3.38954 4.2889 3.29313C4.39581 3.20217 4.50731 3.11673 4.62294 3.03715C4.73663 2.95837 4.85323 2.88825 4.97464 2.8238C5.09605 2.75936 5.22226 2.70114 5.35501 2.64874C5.48777 2.59635 5.62722 2.54947 5.77494 2.50693C5.93013 2.4634 6.08705 2.42626 6.24529 2.39561C6.41168 2.36299 6.5884 2.33455 6.77709 2.30973C6.96578 2.28491 7.16652 2.26348 7.38113 2.24489C7.53082 2.23197 7.78876 2.22047 8.12841 2.21078L9.36454 2.18635L12.6529 2.16626L12.6523 2.16697Z" fill="white"/>
</svg>
