<svg width="24" height="24" viewBox="0 0 24 24" fill="none" xmlns="http://www.w3.org/2000/svg">
<path d="M10.5893 13.4099C10.9993 13.7999 10.9993 14.4399 10.5893 14.8299C10.1993 15.2199 9.55928 15.2199 9.16928 14.8299C7.21928 12.8799 7.21928 9.70995 9.16928 7.75995L12.7093 4.21995C14.6593 2.26995 17.8293 2.26995 19.7793 4.21995C21.7293 6.16995 21.7293 9.33995 19.7793 11.2899L18.2893 12.7799C18.2993 11.9599 18.1693 11.1399 17.8893 10.3599L18.3593 9.87995C19.5393 8.70995 19.5393 6.80995 18.3593 5.63995C17.1893 4.45995 15.2893 4.45995 14.1193 5.63995L10.5893 9.16995C9.40928 10.3399 9.40928 12.2399 10.5893 13.4099ZM13.4093 9.16995C13.7993 8.77995 14.4393 8.77995 14.8293 9.16995C16.7793 11.1199 16.7793 14.2899 14.8293 16.2399L11.2893 19.7799C9.33928 21.7299 6.16928 21.7299 4.21927 19.7799C2.26927 17.8299 2.26927 14.6599 4.21927 12.7099L5.70928 11.2199C5.69928 12.0399 5.82928 12.8599 6.10928 13.6499L5.63928 14.1199C4.45928 15.2899 4.45928 17.1899 5.63928 18.3599C6.80928 19.5399 8.70928 19.5399 9.87928 18.3599L13.4093 14.8299C14.5893 13.6599 14.5893 11.7599 13.4093 10.5899C12.9993 10.1999 12.9993 9.55995 13.4093 9.16995Z" fill="#FA981D"/>
</svg>
