<svg width="38" height="38" viewBox="0 0 38 38" fill="none" xmlns="http://www.w3.org/2000/svg">
<path d="M37 19.0007C37 21.3645 36.5344 23.7052 35.6298 25.889C34.7252 28.0729 33.3994 30.0572 31.7279 31.7287C30.0565 33.4001 28.0722 34.726 25.8883 35.6306C23.7044 36.5351 21.3638 37.0007 19 37.0007C16.6362 37.0007 14.2956 36.5351 12.1117 35.6306C9.92784 34.726 7.94353 33.4001 6.27208 31.7287C4.60062 30.0572 3.27475 28.0729 2.37017 25.889C1.46558 23.7052 1 21.3645 1 19.0007" stroke="white" stroke-width="2"/>
<path d="M1 19.0007C1 16.6369 1.46558 14.2963 2.37017 12.1124C3.27476 9.92856 4.60063 7.94426 6.27208 6.2728C7.94354 4.60135 9.92785 3.27548 12.1117 2.3709C14.2956 1.46631 16.6362 1.00073 19 1.00073C21.3638 1.00073 23.7045 1.46632 25.8883 2.37091C28.0722 3.2755 30.0565 4.60137 31.7279 6.27283C33.3994 7.94428 34.7253 9.92859 35.6298 12.1125C36.5344 14.2963 37 16.637 37 19.0008" stroke="#F47039" stroke-width="2"/>
</svg>
